<mxfile host="app.diagrams.net" modified="2023-07-09T07:29:53.877Z" agent="Mozilla/5.0 (Macintosh; Intel Mac OS X 10_15_7) AppleWebKit/605.1.15 (KHTML, like Gecko) Version/16.4.1 Safari/605.1.15" version="21.6.1" etag="BKd2d8wcBy6tiP8_Zgat" type="github">
  <diagram name="Page-1" id="wgeQyutbsQQGkMpldoMY">
    <mxGraphModel>
      <root>
        <mxCell id="0" />
        <mxCell id="1" parent="0" />
      </root>
    </mxGraphModel>
  </diagram>
</mxfile>
